{
    "patcher": {
        "fileversion": 1,
        "appversion": {
            "major": 9,
            "minor": 1,
            "revision": 2,
            "architecture": "x64",
            "modernui": 1
        },
        "classnamespace": "box",
        "rect": [ 34.0, 87.0, 1372.0, 779.0 ],
        "boxes": [
            {
                "box": {
                    "id": "obj-1",
                    "linecount": 4,
                    "maxclass": "newobj",
                    "numinlets": 1,
                    "numoutlets": 2,
                    "outlettype": [ "jit_matrix", "" ],
                    "patching_rect": [ 110.0, 1380.0, 53.0, 62.0 ],
                    "text": "jit.matrix fft_viz 4 float32 512 256"
                }
            },
            {
                "box": {
                    "id": "obj-2",
                    "linecount": 4,
                    "maxclass": "comment",
                    "numinlets": 1,
                    "numoutlets": 0,
                    "patching_rect": [ 110.0, 30.0, 150.0, 60.0 ],
                    "text": "comment === FFT SPECTROGRAM — COLOR HEAT MAP WITH EFFECTS ==="
                }
            },
            {
                "box": {
                    "id": "obj-3",
                    "maxclass": "comment",
                    "numinlets": 1,
                    "numoutlets": 0,
                    "patching_rect": [ 110.0, 65.0, 152.0, 20.0 ],
                    "text": "comment --- Audio Input ---"
                }
            },
            {
                "box": {
                    "id": "obj-4",
                    "maxclass": "message",
                    "numinlets": 2,
                    "numoutlets": 1,
                    "outlettype": [ "" ],
                    "patching_rect": [ 110.0, 95.0, 50.0, 22.0 ],
                    "text": "open"
                }
            },
            {
                "box": {
                    "id": "obj-5",
                    "maxclass": "toggle",
                    "numinlets": 1,
                    "numoutlets": 1,
                    "outlettype": [ "int" ],
                    "parameter_enable": 0,
                    "patching_rect": [ 200.0, 95.0, 24.0, 24.0 ]
                }
            },
            {
                "box": {
                    "id": "obj-6",
                    "maxclass": "newobj",
                    "numinlets": 2,
                    "numoutlets": 2,
                    "outlettype": [ "signal", "bang" ],
                    "patching_rect": [ 110.0, 135.0, 57.0, 22.0 ],
                    "text": "sfplay~ 1"
                }
            },
            {
                "box": {
                    "id": "obj-7",
                    "maxclass": "comment",
                    "numinlets": 1,
                    "numoutlets": 0,
                    "patching_rect": [ 110.0, 180.0, 177.0, 20.0 ],
                    "text": "comment === Effects Rack ==="
                }
            },
            {
                "box": {
                    "id": "obj-8",
                    "maxclass": "comment",
                    "numinlets": 1,
                    "numoutlets": 0,
                    "patching_rect": [ 110.0, 205.0, 150.0, 20.0 ],
                    "text": "comment Filter Cutoff"
                }
            },
            {
                "box": {
                    "id": "obj-9",
                    "maxclass": "comment",
                    "numinlets": 1,
                    "numoutlets": 0,
                    "patching_rect": [ 230.0, 205.0, 150.0, 20.0 ],
                    "text": "comment Resonance"
                }
            },
            {
                "box": {
                    "id": "obj-10",
                    "maxclass": "comment",
                    "numinlets": 1,
                    "numoutlets": 0,
                    "patching_rect": [ 350.0, 205.0, 150.0, 20.0 ],
                    "text": "comment Drive"
                }
            },
            {
                "box": {
                    "id": "obj-11",
                    "maxclass": "comment",
                    "numinlets": 1,
                    "numoutlets": 0,
                    "patching_rect": [ 470.0, 205.0, 150.0, 20.0 ],
                    "text": "comment Tremolo"
                }
            },
            {
                "box": {
                    "id": "obj-12",
                    "maxclass": "comment",
                    "numinlets": 1,
                    "numoutlets": 0,
                    "patching_rect": [ 590.0, 205.0, 150.0, 20.0 ],
                    "text": "comment Delay FB"
                }
            },
            {
                "box": {
                    "id": "obj-13",
                    "maxclass": "newobj",
                    "numinlets": 1,
                    "numoutlets": 1,
                    "outlettype": [ "bang" ],
                    "patching_rect": [ 110.0, 235.0, 58.0, 22.0 ],
                    "text": "loadbang"
                }
            },
            {
                "box": {
                    "id": "obj-14",
                    "maxclass": "newobj",
                    "numinlets": 1,
                    "numoutlets": 1,
                    "outlettype": [ "bang" ],
                    "patching_rect": [ 230.0, 235.0, 58.0, 22.0 ],
                    "text": "loadbang"
                }
            },
            {
                "box": {
                    "id": "obj-15",
                    "maxclass": "newobj",
                    "numinlets": 1,
                    "numoutlets": 1,
                    "outlettype": [ "bang" ],
                    "patching_rect": [ 350.0, 235.0, 58.0, 22.0 ],
                    "text": "loadbang"
                }
            },
            {
                "box": {
                    "id": "obj-16",
                    "maxclass": "newobj",
                    "numinlets": 1,
                    "numoutlets": 1,
                    "outlettype": [ "bang" ],
                    "patching_rect": [ 470.0, 235.0, 58.0, 22.0 ],
                    "text": "loadbang"
                }
            },
            {
                "box": {
                    "id": "obj-17",
                    "maxclass": "newobj",
                    "numinlets": 1,
                    "numoutlets": 1,
                    "outlettype": [ "bang" ],
                    "patching_rect": [ 590.0, 235.0, 58.0, 22.0 ],
                    "text": "loadbang"
                }
            },
            {
                "box": {
                    "id": "obj-18",
                    "maxclass": "message",
                    "numinlets": 2,
                    "numoutlets": 1,
                    "outlettype": [ "" ],
                    "patching_rect": [ 110.0, 265.0, 50.0, 22.0 ],
                    "text": "127"
                }
            },
            {
                "box": {
                    "id": "obj-19",
                    "maxclass": "message",
                    "numinlets": 2,
                    "numoutlets": 1,
                    "outlettype": [ "" ],
                    "patching_rect": [ 230.0, 265.0, 50.0, 22.0 ],
                    "text": "0"
                }
            },
            {
                "box": {
                    "id": "obj-20",
                    "maxclass": "message",
                    "numinlets": 2,
                    "numoutlets": 1,
                    "outlettype": [ "" ],
                    "patching_rect": [ 350.0, 265.0, 50.0, 22.0 ],
                    "text": "0"
                }
            },
            {
                "box": {
                    "id": "obj-21",
                    "maxclass": "message",
                    "numinlets": 2,
                    "numoutlets": 1,
                    "outlettype": [ "" ],
                    "patching_rect": [ 470.0, 265.0, 50.0, 22.0 ],
                    "text": "0"
                }
            },
            {
                "box": {
                    "id": "obj-22",
                    "maxclass": "message",
                    "numinlets": 2,
                    "numoutlets": 1,
                    "outlettype": [ "" ],
                    "patching_rect": [ 590.0, 265.0, 50.0, 22.0 ],
                    "text": "0"
                }
            },
            {
                "box": {
                    "id": "obj-23",
                    "maxclass": "dial",
                    "numinlets": 1,
                    "numoutlets": 1,
                    "outlettype": [ "float" ],
                    "parameter_enable": 0,
                    "patching_rect": [ 110.0, 295.0, 40.0, 40.0 ]
                }
            },
            {
                "box": {
                    "id": "obj-24",
                    "maxclass": "dial",
                    "numinlets": 1,
                    "numoutlets": 1,
                    "outlettype": [ "float" ],
                    "parameter_enable": 0,
                    "patching_rect": [ 230.0, 295.0, 40.0, 40.0 ]
                }
            },
            {
                "box": {
                    "id": "obj-25",
                    "maxclass": "dial",
                    "numinlets": 1,
                    "numoutlets": 1,
                    "outlettype": [ "float" ],
                    "parameter_enable": 0,
                    "patching_rect": [ 350.0, 295.0, 40.0, 40.0 ]
                }
            },
            {
                "box": {
                    "id": "obj-26",
                    "maxclass": "dial",
                    "numinlets": 1,
                    "numoutlets": 1,
                    "outlettype": [ "float" ],
                    "parameter_enable": 0,
                    "patching_rect": [ 470.0, 295.0, 40.0, 40.0 ]
                }
            },
            {
                "box": {
                    "id": "obj-27",
                    "maxclass": "dial",
                    "numinlets": 1,
                    "numoutlets": 1,
                    "outlettype": [ "float" ],
                    "parameter_enable": 0,
                    "patching_rect": [ 590.0, 295.0, 40.0, 40.0 ]
                }
            },
            {
                "box": {
                    "id": "obj-28",
                    "maxclass": "newobj",
                    "numinlets": 6,
                    "numoutlets": 1,
                    "outlettype": [ "" ],
                    "patching_rect": [ 110.0, 345.0, 137.0, 22.0 ],
                    "text": "scale 0 127 100. 15000."
                }
            },
            {
                "box": {
                    "id": "obj-29",
                    "maxclass": "newobj",
                    "numinlets": 6,
                    "numoutlets": 1,
                    "outlettype": [ "" ],
                    "patching_rect": [ 230.0, 345.0, 110.0, 22.0 ],
                    "text": "scale 0 127 0. 0.95"
                }
            },
            {
                "box": {
                    "id": "obj-30",
                    "maxclass": "newobj",
                    "numinlets": 6,
                    "numoutlets": 1,
                    "outlettype": [ "" ],
                    "patching_rect": [ 350.0, 345.0, 103.0, 22.0 ],
                    "text": "scale 0 127 1. 20."
                }
            },
            {
                "box": {
                    "id": "obj-31",
                    "maxclass": "newobj",
                    "numinlets": 6,
                    "numoutlets": 1,
                    "outlettype": [ "" ],
                    "patching_rect": [ 470.0, 345.0, 103.0, 22.0 ],
                    "text": "scale 0 127 0. 20."
                }
            },
            {
                "box": {
                    "id": "obj-32",
                    "maxclass": "newobj",
                    "numinlets": 6,
                    "numoutlets": 1,
                    "outlettype": [ "" ],
                    "patching_rect": [ 590.0, 345.0, 103.0, 22.0 ],
                    "text": "scale 0 127 0. 0.8"
                }
            },
            {
                "box": {
                    "id": "obj-33",
                    "maxclass": "newobj",
                    "numinlets": 1,
                    "numoutlets": 1,
                    "outlettype": [ "signal" ],
                    "patching_rect": [ 110.0, 385.0, 71.0, 22.0 ],
                    "text": "sig~ 15000."
                }
            },
            {
                "box": {
                    "id": "obj-34",
                    "maxclass": "newobj",
                    "numinlets": 1,
                    "numoutlets": 1,
                    "outlettype": [ "signal" ],
                    "patching_rect": [ 230.0, 385.0, 31.0, 22.0 ],
                    "text": "sig~"
                }
            },
            {
                "box": {
                    "id": "obj-35",
                    "maxclass": "newobj",
                    "numinlets": 1,
                    "numoutlets": 1,
                    "outlettype": [ "signal" ],
                    "patching_rect": [ 350.0, 385.0, 44.0, 22.0 ],
                    "text": "sig~ 1."
                }
            },
            {
                "box": {
                    "id": "obj-36",
                    "maxclass": "newobj",
                    "numinlets": 1,
                    "numoutlets": 1,
                    "outlettype": [ "signal" ],
                    "patching_rect": [ 470.0, 385.0, 31.0, 22.0 ],
                    "text": "sig~"
                }
            },
            {
                "box": {
                    "id": "obj-37",
                    "maxclass": "newobj",
                    "numinlets": 1,
                    "numoutlets": 1,
                    "outlettype": [ "signal" ],
                    "patching_rect": [ 590.0, 385.0, 31.0, 22.0 ],
                    "text": "sig~"
                }
            },
            {
                "box": {
                    "id": "obj-38",
                    "maxclass": "comment",
                    "numinlets": 1,
                    "numoutlets": 0,
                    "patching_rect": [ 110.0, 425.0, 191.0, 20.0 ],
                    "text": "comment --- Effects DSP Chain ---"
                }
            },
            {
                "box": {
                    "id": "obj-39",
                    "maxclass": "newobj",
                    "numinlets": 3,
                    "numoutlets": 1,
                    "outlettype": [ "signal" ],
                    "patching_rect": [ 110.0, 455.0, 42.0, 22.0 ],
                    "text": "lores~"
                }
            },
            {
                "box": {
                    "id": "obj-40",
                    "maxclass": "newobj",
                    "numinlets": 2,
                    "numoutlets": 1,
                    "outlettype": [ "signal" ],
                    "patching_rect": [ 110.0, 495.0, 20.0, 22.0 ],
                    "text": "*~"
                }
            },
            {
                "box": {
                    "id": "obj-41",
                    "maxclass": "newobj",
                    "numinlets": 1,
                    "numoutlets": 1,
                    "outlettype": [ "signal" ],
                    "patching_rect": [ 110.0, 535.0, 39.0, 22.0 ],
                    "text": "tanh~"
                }
            },
            {
                "box": {
                    "id": "obj-42",
                    "maxclass": "newobj",
                    "numinlets": 2,
                    "numoutlets": 1,
                    "outlettype": [ "signal" ],
                    "patching_rect": [ 470.0, 425.0, 43.0, 22.0 ],
                    "text": "cycle~"
                }
            },
            {
                "box": {
                    "id": "obj-43",
                    "maxclass": "newobj",
                    "numinlets": 2,
                    "numoutlets": 1,
                    "outlettype": [ "signal" ],
                    "patching_rect": [ 470.0, 465.0, 40.0, 22.0 ],
                    "text": "*~ 0.5"
                }
            },
            {
                "box": {
                    "id": "obj-44",
                    "maxclass": "newobj",
                    "numinlets": 2,
                    "numoutlets": 1,
                    "outlettype": [ "signal" ],
                    "patching_rect": [ 470.0, 505.0, 43.0, 22.0 ],
                    "text": "+~ 0.5"
                }
            },
            {
                "box": {
                    "id": "obj-45",
                    "maxclass": "newobj",
                    "numinlets": 2,
                    "numoutlets": 1,
                    "outlettype": [ "signal" ],
                    "patching_rect": [ 110.0, 575.0, 20.0, 22.0 ],
                    "text": "*~"
                }
            },
            {
                "box": {
                    "id": "obj-46",
                    "maxclass": "newobj",
                    "numinlets": 2,
                    "numoutlets": 1,
                    "outlettype": [ "signal" ],
                    "patching_rect": [ 110.0, 615.0, 23.0, 22.0 ],
                    "text": "+~"
                }
            },
            {
                "box": {
                    "id": "obj-47",
                    "maxclass": "newobj",
                    "numinlets": 1,
                    "numoutlets": 1,
                    "outlettype": [ "tapconnect" ],
                    "patching_rect": [ 110.0, 655.0, 72.0, 22.0 ],
                    "text": "tapin~ 1000"
                }
            },
            {
                "box": {
                    "id": "obj-48",
                    "maxclass": "newobj",
                    "numinlets": 1,
                    "numoutlets": 1,
                    "outlettype": [ "signal" ],
                    "patching_rect": [ 110.0, 690.0, 72.0, 22.0 ],
                    "text": "tapout~ 250"
                }
            },
            {
                "box": {
                    "id": "obj-49",
                    "maxclass": "newobj",
                    "numinlets": 2,
                    "numoutlets": 1,
                    "outlettype": [ "signal" ],
                    "patching_rect": [ 230.0, 690.0, 20.0, 22.0 ],
                    "text": "*~"
                }
            },
            {
                "box": {
                    "id": "obj-50",
                    "maxclass": "comment",
                    "numinlets": 1,
                    "numoutlets": 0,
                    "patching_rect": [ 110.0, 730.0, 161.0, 20.0 ],
                    "text": "comment --- FFT Analysis ---"
                }
            },
            {
                "box": {
                    "id": "obj-51",
                    "maxclass": "newobj",
                    "numinlets": 2,
                    "numoutlets": 3,
                    "outlettype": [ "signal", "signal", "signal" ],
                    "patching_rect": [ 110.0, 760.0, 49.0, 22.0 ],
                    "text": "fft~ 512"
                }
            },
            {
                "box": {
                    "id": "obj-52",
                    "maxclass": "newobj",
                    "numinlets": 2,
                    "numoutlets": 2,
                    "outlettype": [ "signal", "signal" ],
                    "patching_rect": [ 110.0, 800.0, 58.0, 22.0 ],
                    "text": "cartopol~"
                }
            },
            {
                "box": {
                    "id": "obj-53",
                    "maxclass": "comment",
                    "numinlets": 1,
                    "numoutlets": 0,
                    "patching_rect": [ 110.0, 855.0, 150.0, 20.0 ],
                    "text": "comment --- Gain ---"
                }
            },
            {
                "box": {
                    "format": 6,
                    "id": "obj-54",
                    "maxclass": "flonum",
                    "numinlets": 1,
                    "numoutlets": 2,
                    "outlettype": [ "", "bang" ],
                    "parameter_enable": 0,
                    "patching_rect": [ 110.0, 885.0, 50.0, 22.0 ]
                }
            },
            {
                "box": {
                    "id": "obj-55",
                    "maxclass": "newobj",
                    "numinlets": 1,
                    "numoutlets": 1,
                    "outlettype": [ "signal" ],
                    "patching_rect": [ 110.0, 925.0, 31.0, 22.0 ],
                    "text": "sig~"
                }
            },
            {
                "box": {
                    "id": "obj-56",
                    "maxclass": "newobj",
                    "numinlets": 2,
                    "numoutlets": 1,
                    "outlettype": [ "signal" ],
                    "patching_rect": [ 110.0, 965.0, 20.0, 22.0 ],
                    "text": "*~"
                }
            },
            {
                "box": {
                    "id": "obj-57",
                    "maxclass": "newobj",
                    "numinlets": 1,
                    "numoutlets": 1,
                    "outlettype": [ "bang" ],
                    "patching_rect": [ 210.0, 855.0, 58.0, 22.0 ],
                    "text": "loadbang"
                }
            },
            {
                "box": {
                    "id": "obj-58",
                    "maxclass": "message",
                    "numinlets": 2,
                    "numoutlets": 1,
                    "outlettype": [ "" ],
                    "patching_rect": [ 210.0, 885.0, 50.0, 22.0 ],
                    "text": "1."
                }
            },
            {
                "box": {
                    "id": "obj-59",
                    "linecount": 3,
                    "maxclass": "comment",
                    "numinlets": 1,
                    "numoutlets": 0,
                    "patching_rect": [ 110.0, 1020.0, 150.0, 47.0 ],
                    "text": "comment --- Color Map: black → red → yellow → white ---"
                }
            },
            {
                "box": {
                    "id": "obj-60",
                    "maxclass": "newobj",
                    "numinlets": 2,
                    "numoutlets": 1,
                    "outlettype": [ "signal" ],
                    "patching_rect": [ 110.0, 1050.0, 34.0, 22.0 ],
                    "text": "*~ 3."
                }
            },
            {
                "box": {
                    "id": "obj-61",
                    "maxclass": "comment",
                    "numinlets": 1,
                    "numoutlets": 0,
                    "patching_rect": [ 110.0, 1085.0, 150.0, 20.0 ],
                    "text": "comment Red"
                }
            },
            {
                "box": {
                    "id": "obj-62",
                    "maxclass": "newobj",
                    "numinlets": 3,
                    "numoutlets": 1,
                    "outlettype": [ "signal" ],
                    "patching_rect": [ 110.0, 1110.0, 60.0, 22.0 ],
                    "text": "clip~ 0. 1."
                }
            },
            {
                "box": {
                    "id": "obj-63",
                    "maxclass": "comment",
                    "numinlets": 1,
                    "numoutlets": 0,
                    "patching_rect": [ 250.0, 1085.0, 150.0, 20.0 ],
                    "text": "comment Green"
                }
            },
            {
                "box": {
                    "id": "obj-64",
                    "maxclass": "newobj",
                    "numinlets": 2,
                    "numoutlets": 1,
                    "outlettype": [ "signal" ],
                    "patching_rect": [ 250.0, 1110.0, 40.0, 22.0 ],
                    "text": "+~ -1."
                }
            },
            {
                "box": {
                    "id": "obj-65",
                    "maxclass": "newobj",
                    "numinlets": 3,
                    "numoutlets": 1,
                    "outlettype": [ "signal" ],
                    "patching_rect": [ 250.0, 1150.0, 60.0, 22.0 ],
                    "text": "clip~ 0. 1."
                }
            },
            {
                "box": {
                    "id": "obj-66",
                    "maxclass": "comment",
                    "numinlets": 1,
                    "numoutlets": 0,
                    "patching_rect": [ 390.0, 1085.0, 150.0, 20.0 ],
                    "text": "comment Blue"
                }
            },
            {
                "box": {
                    "id": "obj-67",
                    "maxclass": "newobj",
                    "numinlets": 2,
                    "numoutlets": 1,
                    "outlettype": [ "signal" ],
                    "patching_rect": [ 390.0, 1110.0, 40.0, 22.0 ],
                    "text": "+~ -2."
                }
            },
            {
                "box": {
                    "id": "obj-68",
                    "maxclass": "newobj",
                    "numinlets": 3,
                    "numoutlets": 1,
                    "outlettype": [ "signal" ],
                    "patching_rect": [ 390.0, 1150.0, 60.0, 22.0 ],
                    "text": "clip~ 0. 1."
                }
            },
            {
                "box": {
                    "id": "obj-69",
                    "maxclass": "comment",
                    "numinlets": 1,
                    "numoutlets": 0,
                    "patching_rect": [ 530.0, 1085.0, 150.0, 20.0 ],
                    "text": "comment Alpha"
                }
            },
            {
                "box": {
                    "id": "obj-70",
                    "maxclass": "newobj",
                    "numinlets": 1,
                    "numoutlets": 1,
                    "outlettype": [ "signal" ],
                    "patching_rect": [ 530.0, 1110.0, 44.0, 22.0 ],
                    "text": "sig~ 1."
                }
            },
            {
                "box": {
                    "id": "obj-71",
                    "maxclass": "comment",
                    "numinlets": 1,
                    "numoutlets": 0,
                    "patching_rect": [ 530.0, 1180.0, 162.0, 20.0 ],
                    "text": "comment --- Row Counter ---"
                }
            },
            {
                "box": {
                    "id": "obj-72",
                    "maxclass": "newobj",
                    "numinlets": 1,
                    "numoutlets": 1,
                    "outlettype": [ "bang" ],
                    "patching_rect": [ 530.0, 1210.0, 58.0, 22.0 ],
                    "text": "loadbang"
                }
            },
            {
                "box": {
                    "id": "obj-73",
                    "maxclass": "newobj",
                    "numinlets": 2,
                    "numoutlets": 1,
                    "outlettype": [ "bang" ],
                    "patching_rect": [ 530.0, 1245.0, 49.0, 22.0 ],
                    "text": "metro 6"
                }
            },
            {
                "box": {
                    "id": "obj-74",
                    "maxclass": "newobj",
                    "numinlets": 5,
                    "numoutlets": 4,
                    "outlettype": [ "int", "", "", "int" ],
                    "patching_rect": [ 530.0, 1280.0, 82.0, 22.0 ],
                    "text": "counter 0 255"
                }
            },
            {
                "box": {
                    "id": "obj-75",
                    "maxclass": "newobj",
                    "numinlets": 1,
                    "numoutlets": 1,
                    "outlettype": [ "signal" ],
                    "patching_rect": [ 530.0, 1315.0, 31.0, 22.0 ],
                    "text": "sig~"
                }
            },
            {
                "box": {
                    "id": "obj-76",
                    "linecount": 3,
                    "maxclass": "comment",
                    "numinlets": 1,
                    "numoutlets": 0,
                    "patching_rect": [ 110.0, 1200.0, 150.0, 47.0 ],
                    "text": "comment --- jit.poke~ per color plane (value, x=bin, y=row) ---"
                }
            },
            {
                "box": {
                    "id": "obj-77",
                    "maxclass": "newobj",
                    "numinlets": 3,
                    "numoutlets": 1,
                    "outlettype": [ "" ],
                    "patching_rect": [ 530.0, 1350.0, 153.0, 22.0 ],
                    "text": "jit.poke~ fft_viz 2 @plane 0"
                }
            },
            {
                "box": {
                    "id": "obj-78",
                    "maxclass": "newobj",
                    "numinlets": 3,
                    "numoutlets": 1,
                    "outlettype": [ "" ],
                    "patching_rect": [ 110.0, 1240.0, 153.0, 22.0 ],
                    "text": "jit.poke~ fft_viz 2 @plane 1"
                }
            },
            {
                "box": {
                    "id": "obj-79",
                    "maxclass": "newobj",
                    "numinlets": 3,
                    "numoutlets": 1,
                    "outlettype": [ "" ],
                    "patching_rect": [ 250.0, 1240.0, 153.0, 22.0 ],
                    "text": "jit.poke~ fft_viz 2 @plane 2"
                }
            },
            {
                "box": {
                    "id": "obj-80",
                    "maxclass": "newobj",
                    "numinlets": 3,
                    "numoutlets": 1,
                    "outlettype": [ "" ],
                    "patching_rect": [ 390.0, 1240.0, 153.0, 22.0 ],
                    "text": "jit.poke~ fft_viz 2 @plane 3"
                }
            },
            {
                "box": {
                    "id": "obj-81",
                    "maxclass": "comment",
                    "numinlets": 1,
                    "numoutlets": 0,
                    "patching_rect": [ 110.0, 1330.0, 265.0, 20.0 ],
                    "text": "comment --- Jitter Display (512 x 256, ARGB) ---"
                }
            },
            {
                "box": {
                    "id": "obj-82",
                    "maxclass": "newobj",
                    "numinlets": 1,
                    "numoutlets": 1,
                    "outlettype": [ "bang" ],
                    "patching_rect": [ 330.0, 1355.0, 58.0, 22.0 ],
                    "text": "loadbang"
                }
            },
            {
                "box": {
                    "id": "obj-83",
                    "maxclass": "newobj",
                    "numinlets": 2,
                    "numoutlets": 1,
                    "outlettype": [ "bang" ],
                    "patching_rect": [ 330.0, 1390.0, 56.0, 22.0 ],
                    "text": "metro 33"
                }
            },
            {
                "box": {
                    "id": "obj-84",
                    "maxclass": "jit.pwindow",
                    "numinlets": 1,
                    "numoutlets": 2,
                    "outlettype": [ "jit_matrix", "" ],
                    "patching_rect": [ 424.0, 811.0, 404.0, 250.0 ],
                    "sync": 1
                }
            },
            {
                "box": {
                    "id": "obj-85",
                    "maxclass": "comment",
                    "numinlets": 1,
                    "numoutlets": 0,
                    "patching_rect": [ 110.0, 1500.0, 161.0, 20.0 ],
                    "text": "comment --- Audio Output ---"
                }
            },
            {
                "box": {
                    "id": "obj-86",
                    "maxclass": "newobj",
                    "numinlets": 3,
                    "numoutlets": 1,
                    "outlettype": [ "signal" ],
                    "patching_rect": [ 110.0, 1530.0, 64.0, 22.0 ],
                    "text": "clip~ -1. 1."
                }
            },
            {
                "box": {
                    "id": "obj-87",
                    "maxclass": "ezdac~",
                    "numinlets": 2,
                    "numoutlets": 0,
                    "patching_rect": [ 110.0, 1570.0, 45.0, 45.0 ]
                }
            },
            {
                "box": {
                    "id": "obj-88",
                    "linecount": 5,
                    "maxclass": "comment",
                    "numinlets": 1,
                    "numoutlets": 0,
                    "patching_rect": [ 110.0, 1620.0, 150.0, 74.0 ],
                    "text": "comment Turn on ezdac~ → 'open' WAV → toggle play → turn effect dials → adjust Gain (0.5–5.0) → resize jit.pwindow"
                }
            }
        ],
        "lines": [
            {
                "patchline": {
                    "destination": [ "obj-84", 0 ],
                    "source": [ "obj-1", 0 ]
                }
            },
            {
                "patchline": {
                    "destination": [ "obj-18", 0 ],
                    "source": [ "obj-13", 0 ]
                }
            },
            {
                "patchline": {
                    "destination": [ "obj-19", 0 ],
                    "source": [ "obj-14", 0 ]
                }
            },
            {
                "patchline": {
                    "destination": [ "obj-20", 0 ],
                    "source": [ "obj-15", 0 ]
                }
            },
            {
                "patchline": {
                    "destination": [ "obj-21", 0 ],
                    "source": [ "obj-16", 0 ]
                }
            },
            {
                "patchline": {
                    "destination": [ "obj-22", 0 ],
                    "source": [ "obj-17", 0 ]
                }
            },
            {
                "patchline": {
                    "destination": [ "obj-23", 0 ],
                    "source": [ "obj-18", 0 ]
                }
            },
            {
                "patchline": {
                    "destination": [ "obj-24", 0 ],
                    "source": [ "obj-19", 0 ]
                }
            },
            {
                "patchline": {
                    "destination": [ "obj-25", 0 ],
                    "source": [ "obj-20", 0 ]
                }
            },
            {
                "patchline": {
                    "destination": [ "obj-26", 0 ],
                    "source": [ "obj-21", 0 ]
                }
            },
            {
                "patchline": {
                    "destination": [ "obj-27", 0 ],
                    "source": [ "obj-22", 0 ]
                }
            },
            {
                "patchline": {
                    "destination": [ "obj-28", 0 ],
                    "source": [ "obj-23", 0 ]
                }
            },
            {
                "patchline": {
                    "destination": [ "obj-29", 0 ],
                    "source": [ "obj-24", 0 ]
                }
            },
            {
                "patchline": {
                    "destination": [ "obj-30", 0 ],
                    "source": [ "obj-25", 0 ]
                }
            },
            {
                "patchline": {
                    "destination": [ "obj-31", 0 ],
                    "source": [ "obj-26", 0 ]
                }
            },
            {
                "patchline": {
                    "destination": [ "obj-32", 0 ],
                    "source": [ "obj-27", 0 ]
                }
            },
            {
                "patchline": {
                    "destination": [ "obj-33", 0 ],
                    "source": [ "obj-28", 0 ]
                }
            },
            {
                "patchline": {
                    "destination": [ "obj-34", 0 ],
                    "source": [ "obj-29", 0 ]
                }
            },
            {
                "patchline": {
                    "destination": [ "obj-35", 0 ],
                    "source": [ "obj-30", 0 ]
                }
            },
            {
                "patchline": {
                    "destination": [ "obj-36", 0 ],
                    "source": [ "obj-31", 0 ]
                }
            },
            {
                "patchline": {
                    "destination": [ "obj-37", 0 ],
                    "source": [ "obj-32", 0 ]
                }
            },
            {
                "patchline": {
                    "destination": [ "obj-39", 1 ],
                    "source": [ "obj-33", 0 ]
                }
            },
            {
                "patchline": {
                    "destination": [ "obj-39", 2 ],
                    "source": [ "obj-34", 0 ]
                }
            },
            {
                "patchline": {
                    "destination": [ "obj-40", 1 ],
                    "source": [ "obj-35", 0 ]
                }
            },
            {
                "patchline": {
                    "destination": [ "obj-42", 0 ],
                    "source": [ "obj-36", 0 ]
                }
            },
            {
                "patchline": {
                    "destination": [ "obj-49", 1 ],
                    "source": [ "obj-37", 0 ]
                }
            },
            {
                "patchline": {
                    "destination": [ "obj-40", 0 ],
                    "source": [ "obj-39", 0 ]
                }
            },
            {
                "patchline": {
                    "destination": [ "obj-6", 0 ],
                    "source": [ "obj-4", 0 ]
                }
            },
            {
                "patchline": {
                    "destination": [ "obj-41", 0 ],
                    "source": [ "obj-40", 0 ]
                }
            },
            {
                "patchline": {
                    "destination": [ "obj-45", 0 ],
                    "source": [ "obj-41", 0 ]
                }
            },
            {
                "patchline": {
                    "destination": [ "obj-43", 0 ],
                    "source": [ "obj-42", 0 ]
                }
            },
            {
                "patchline": {
                    "destination": [ "obj-44", 0 ],
                    "source": [ "obj-43", 0 ]
                }
            },
            {
                "patchline": {
                    "destination": [ "obj-45", 1 ],
                    "source": [ "obj-44", 0 ]
                }
            },
            {
                "patchline": {
                    "destination": [ "obj-46", 0 ],
                    "source": [ "obj-45", 0 ]
                }
            },
            {
                "patchline": {
                    "destination": [ "obj-47", 0 ],
                    "order": 2,
                    "source": [ "obj-46", 0 ]
                }
            },
            {
                "patchline": {
                    "destination": [ "obj-51", 0 ],
                    "order": 1,
                    "source": [ "obj-46", 0 ]
                }
            },
            {
                "patchline": {
                    "destination": [ "obj-86", 0 ],
                    "order": 0,
                    "source": [ "obj-46", 0 ]
                }
            },
            {
                "patchline": {
                    "destination": [ "obj-48", 0 ],
                    "source": [ "obj-47", 0 ]
                }
            },
            {
                "patchline": {
                    "destination": [ "obj-49", 0 ],
                    "source": [ "obj-48", 0 ]
                }
            },
            {
                "patchline": {
                    "destination": [ "obj-46", 1 ],
                    "source": [ "obj-49", 0 ]
                }
            },
            {
                "patchline": {
                    "destination": [ "obj-6", 0 ],
                    "source": [ "obj-5", 0 ]
                }
            },
            {
                "patchline": {
                    "destination": [ "obj-52", 1 ],
                    "source": [ "obj-51", 1 ]
                }
            },
            {
                "patchline": {
                    "destination": [ "obj-52", 0 ],
                    "source": [ "obj-51", 0 ]
                }
            },
            {
                "patchline": {
                    "destination": [ "obj-77", 1 ],
                    "order": 0,
                    "source": [ "obj-51", 2 ]
                }
            },
            {
                "patchline": {
                    "destination": [ "obj-78", 1 ],
                    "order": 3,
                    "source": [ "obj-51", 2 ]
                }
            },
            {
                "patchline": {
                    "destination": [ "obj-79", 1 ],
                    "order": 2,
                    "source": [ "obj-51", 2 ]
                }
            },
            {
                "patchline": {
                    "destination": [ "obj-80", 1 ],
                    "order": 1,
                    "source": [ "obj-51", 2 ]
                }
            },
            {
                "patchline": {
                    "destination": [ "obj-56", 0 ],
                    "source": [ "obj-52", 0 ]
                }
            },
            {
                "patchline": {
                    "destination": [ "obj-55", 0 ],
                    "source": [ "obj-54", 0 ]
                }
            },
            {
                "patchline": {
                    "destination": [ "obj-56", 1 ],
                    "source": [ "obj-55", 0 ]
                }
            },
            {
                "patchline": {
                    "destination": [ "obj-60", 0 ],
                    "source": [ "obj-56", 0 ]
                }
            },
            {
                "patchline": {
                    "destination": [ "obj-58", 0 ],
                    "source": [ "obj-57", 0 ]
                }
            },
            {
                "patchline": {
                    "destination": [ "obj-54", 0 ],
                    "source": [ "obj-58", 0 ]
                }
            },
            {
                "patchline": {
                    "destination": [ "obj-39", 0 ],
                    "source": [ "obj-6", 0 ]
                }
            },
            {
                "patchline": {
                    "destination": [ "obj-62", 0 ],
                    "order": 2,
                    "source": [ "obj-60", 0 ]
                }
            },
            {
                "patchline": {
                    "destination": [ "obj-64", 0 ],
                    "order": 1,
                    "source": [ "obj-60", 0 ]
                }
            },
            {
                "patchline": {
                    "destination": [ "obj-67", 0 ],
                    "order": 0,
                    "source": [ "obj-60", 0 ]
                }
            },
            {
                "patchline": {
                    "destination": [ "obj-78", 0 ],
                    "source": [ "obj-62", 0 ]
                }
            },
            {
                "patchline": {
                    "destination": [ "obj-65", 0 ],
                    "source": [ "obj-64", 0 ]
                }
            },
            {
                "patchline": {
                    "destination": [ "obj-79", 0 ],
                    "source": [ "obj-65", 0 ]
                }
            },
            {
                "patchline": {
                    "destination": [ "obj-68", 0 ],
                    "source": [ "obj-67", 0 ]
                }
            },
            {
                "patchline": {
                    "destination": [ "obj-80", 0 ],
                    "source": [ "obj-68", 0 ]
                }
            },
            {
                "patchline": {
                    "destination": [ "obj-77", 0 ],
                    "source": [ "obj-70", 0 ]
                }
            },
            {
                "patchline": {
                    "destination": [ "obj-73", 0 ],
                    "source": [ "obj-72", 0 ]
                }
            },
            {
                "patchline": {
                    "destination": [ "obj-74", 0 ],
                    "source": [ "obj-73", 0 ]
                }
            },
            {
                "patchline": {
                    "destination": [ "obj-75", 0 ],
                    "source": [ "obj-74", 0 ]
                }
            },
            {
                "patchline": {
                    "destination": [ "obj-77", 2 ],
                    "order": 0,
                    "source": [ "obj-75", 0 ]
                }
            },
            {
                "patchline": {
                    "destination": [ "obj-78", 2 ],
                    "order": 3,
                    "source": [ "obj-75", 0 ]
                }
            },
            {
                "patchline": {
                    "destination": [ "obj-79", 2 ],
                    "order": 2,
                    "source": [ "obj-75", 0 ]
                }
            },
            {
                "patchline": {
                    "destination": [ "obj-80", 2 ],
                    "order": 1,
                    "source": [ "obj-75", 0 ]
                }
            },
            {
                "patchline": {
                    "destination": [ "obj-83", 0 ],
                    "source": [ "obj-82", 0 ]
                }
            },
            {
                "patchline": {
                    "destination": [ "obj-1", 0 ],
                    "source": [ "obj-83", 0 ]
                }
            },
            {
                "patchline": {
                    "destination": [ "obj-87", 1 ],
                    "order": 0,
                    "source": [ "obj-86", 0 ]
                }
            },
            {
                "patchline": {
                    "destination": [ "obj-87", 0 ],
                    "order": 1,
                    "source": [ "obj-86", 0 ]
                }
            }
        ],
        "autosave": 0
    }
}